<?xml version="1.0" encoding="UTF-8" standalone="no"?>
<!DOCTYPE svg PUBLIC "-//W3C//DTD SVG 1.1//EN" "http://www.w3.org/Graphics/SVG/1.1/DTD/svg11.dtd">
<svg version="1.1" xmlns="http://www.w3.org/2000/svg" xmlns:xlink="http://www.w3.org/1999/xlink" preserveAspectRatio="xMidYMid meet" viewBox="0 0 640 640" width="640" height="640"><defs><path d="M320 12.8C150.34 12.8 12.8 150.34 12.8 320C12.8 489.66 150.34 627.2 320 627.2C489.66 627.2 627.2 489.66 627.2 320C627.2 150.34 489.66 12.8 320 12.8Z" id="ctFw00V0g"></path><path d="M332.86 163.72L339.19 164.36L345.43 165.25L351.6 166.39L357.68 167.76L363.67 169.36L369.56 171.19L375.35 173.25L381.03 175.52L386.6 178.01L392.06 180.7L397.39 183.6L402.6 186.69L407.67 189.98L412.6 193.45L417.4 197.11L422.04 200.94L426.54 204.95L430.87 209.13L435.05 213.46L439.06 217.96L442.89 222.6L446.55 227.4L450.02 232.33L453.31 237.4L456.4 242.61L459.3 247.94L461.99 253.4L464.48 258.97L466.75 264.65L468.81 270.44L470.64 276.33L472.24 282.32L473.61 288.4L474.75 294.57L475.64 300.81L476.28 307.14L476.67 313.54L476.8 320L476.67 326.46L476.28 332.86L475.64 339.19L474.75 345.43L473.61 351.6L472.24 357.68L470.64 363.67L468.81 369.56L466.75 375.35L464.48 381.03L461.99 386.6L459.3 392.06L456.4 397.39L453.31 402.6L450.02 407.67L446.55 412.6L442.89 417.4L439.06 422.04L435.05 426.54L430.87 430.87L426.54 435.05L422.04 439.06L417.4 442.89L412.6 446.55L407.67 450.02L402.6 453.31L397.39 456.4L392.06 459.3L386.6 461.99L381.03 464.48L375.35 466.75L369.56 468.81L363.67 470.64L357.68 472.24L351.6 473.61L345.43 474.75L339.19 475.64L332.86 476.28L326.46 476.67L320 476.8L313.54 476.67L307.14 476.28L300.81 475.64L294.57 474.75L288.4 473.61L282.32 472.24L276.33 470.64L270.44 468.81L264.65 466.75L258.97 464.48L253.4 461.99L247.94 459.3L242.61 456.4L237.4 453.31L232.33 450.02L227.4 446.55L222.6 442.89L217.96 439.06L213.46 435.05L209.13 430.87L204.95 426.54L200.94 422.04L197.11 417.4L193.45 412.6L189.98 407.67L186.69 402.6L183.6 397.39L180.7 392.06L178.01 386.6L175.52 381.03L173.25 375.35L171.19 369.56L169.36 363.67L167.76 357.68L166.39 351.6L165.25 345.43L164.36 339.19L163.72 332.86L163.33 326.46L163.2 320L163.33 313.54L163.72 307.14L164.36 300.81L165.25 294.57L166.39 288.4L167.76 282.32L169.36 276.33L171.19 270.44L173.25 264.65L175.52 258.97L178.01 253.4L180.7 247.94L183.6 242.61L186.69 237.4L189.98 232.33L193.45 227.4L197.11 222.6L200.94 217.96L204.95 213.46L209.13 209.13L213.46 204.95L217.96 200.94L222.6 197.11L227.4 193.45L232.33 189.98L237.4 186.69L242.61 183.6L247.94 180.7L253.4 178.01L258.97 175.52L264.65 173.25L270.44 171.19L276.33 169.36L282.32 167.76L288.4 166.39L294.57 165.25L300.81 164.36L307.14 163.72L313.54 163.33L320 163.2L326.46 163.33L332.86 163.72ZM317.34 188.34L316.01 188.37L314.68 188.41L313.35 188.47L312.03 188.54L310.71 188.63L309.39 188.73L308.08 188.84L306.77 188.96L305.46 189.1L304.15 189.25L302.84 189.41L301.54 189.58L300.24 189.77L298.94 189.97L297.65 190.19L296.36 190.41L295.07 190.65L293.78 190.91L292.5 191.17L291.22 191.45L289.94 191.74L288.67 192.05L287.4 192.36L286.13 192.69L284.87 193.04L283.61 193.39L282.35 193.76L281.1 194.14L279.85 194.53L278.6 194.94L277.35 195.36L276.11 195.79L274.88 196.24L273.64 196.69L272.41 197.16L271.19 197.65L269.97 198.14L268.75 198.65L267.58 199.15L266.41 199.67L265.25 200.19L264.09 200.73L262.95 201.27L261.8 201.83L260.67 202.39L259.54 202.97L258.41 203.56L257.3 204.16L256.18 204.77L255.08 205.39L253.98 206.02L252.89 206.66L251.8 207.31L250.73 207.97L249.65 208.64L248.59 209.32L247.53 210.01L246.48 210.72L245.43 211.43L244.39 212.15L243.36 212.88L242.33 213.63L241.31 214.38L240.3 215.14L239.3 215.92L238.3 216.7L237.31 217.5L236.33 218.3L235.35 219.11L234.38 219.94L233.42 220.77L232.46 221.61L231.51 222.47L230.57 223.33L229.64 224.2L228.71 225.09L227.79 225.98L226.88 226.88L225.98 227.79L225.09 228.71L224.2 229.64L223.33 230.57L222.47 231.51L221.61 232.46L220.77 233.42L219.94 234.38L219.11 235.35L218.3 236.33L217.5 237.31L216.7 238.3L215.92 239.3L215.14 240.3L214.38 241.31L213.63 242.33L212.88 243.36L212.15 244.39L211.43 245.43L210.72 246.48L210.01 247.53L209.32 248.59L208.64 249.65L207.97 250.73L207.31 251.8L206.66 252.89L206.02 253.98L205.39 255.08L204.77 256.18L204.16 257.3L203.56 258.41L202.97 259.54L202.39 260.67L201.83 261.8L201.27 262.95L200.73 264.09L200.19 265.25L199.67 266.41L199.15 267.58L198.65 268.75L198.14 269.97L197.65 271.19L197.16 272.41L196.69 273.64L196.24 274.88L195.79 276.11L195.36 277.35L194.94 278.6L194.53 279.85L194.14 281.1L193.76 282.35L193.39 283.61L193.04 284.87L192.69 286.13L192.36 287.4L192.05 288.67L191.74 289.94L191.45 291.22L191.17 292.5L190.91 293.78L190.65 295.07L190.41 296.36L190.19 297.65L189.97 298.94L189.77 300.24L189.58 301.54L189.41 302.84L189.25 304.15L189.1 305.46L188.96 306.77L188.84 308.08L188.73 309.39L188.63 310.71L188.54 312.03L188.47 313.35L188.41 314.68L188.37 316.01L188.34 317.34L188.32 318.67L188.31 320L188.32 321.33L188.34 322.66L188.37 323.99L188.41 325.32L188.47 326.65L188.54 327.97L188.63 329.29L188.73 330.61L188.84 331.92L188.96 333.23L189.1 334.54L189.25 335.85L189.41 337.16L189.58 338.46L189.77 339.76L189.97 341.06L190.19 342.35L190.41 343.64L190.65 344.93L190.91 346.22L191.17 347.5L191.45 348.78L191.74 350.06L192.05 351.33L192.36 352.6L192.69 353.87L193.03 355.13L193.39 356.39L193.76 357.65L194.14 358.9L194.53 360.15L194.94 361.4L195.36 362.65L195.79 363.89L196.23 365.12L196.69 366.36L197.16 367.59L197.64 368.81L198.14 370.03L198.65 371.25L199.15 372.42L199.66 373.59L200.19 374.75L200.72 375.91L201.27 377.05L201.82 378.2L202.39 379.33L202.97 380.46L203.56 381.59L204.15 382.7L204.76 383.82L205.38 384.92L206.01 386.02L206.65 387.11L207.3 388.2L207.96 389.27L208.64 390.35L209.32 391.41L210.01 392.47L210.71 393.52L211.42 394.57L212.15 395.61L212.88 396.64L213.62 397.67L214.38 398.69L215.14 399.7L215.91 400.7L216.7 401.7L217.49 402.69L218.3 403.67L219.11 404.65L219.93 405.62L220.77 406.58L221.61 407.54L222.46 408.49L223.33 409.43L224.2 410.36L225.08 411.29L225.98 412.21L226.88 413.12L227.79 414.02L228.71 414.91L229.64 415.8L230.57 416.67L231.51 417.53L232.46 418.39L233.41 419.23L234.38 420.06L235.35 420.89L236.32 421.7L237.31 422.5L238.3 423.3L239.3 424.08L240.3 424.86L241.31 425.62L242.33 426.37L243.36 427.12L244.39 427.85L245.43 428.57L246.47 429.28L247.52 429.99L248.58 430.68L249.65 431.36L250.72 432.03L251.8 432.69L252.89 433.34L253.98 433.98L255.08 434.61L256.18 435.23L257.29 435.84L258.41 436.44L259.53 437.03L260.66 437.61L261.8 438.17L262.94 438.73L264.09 439.27L265.25 439.81L266.41 440.33L267.57 440.85L268.75 441.35L269.08 441.49L269.42 441.63L269.75 441.77L270.09 441.91L270.43 442.05L270.77 442.18L271.1 442.32L271.44 442.45L271.78 442.59L272.12 442.72L272.46 442.85L272.8 442.98L273.14 443.11L273.48 443.24L273.82 443.37L274.16 443.5L274.5 443.62L274.84 443.75L275.18 443.87L275.52 443.99L275.86 444.11L276.2 444.24L276.54 444.36L276.89 444.47L277.23 444.59L277.57 444.71L277.92 444.83L278.26 444.94L278.6 445.05L278.95 445.17L279.29 445.28L279.64 445.39L279.98 445.5L280.33 445.61L280.67 445.72L281.02 445.83L281.36 445.93L281.71 446.04L282.06 446.14L282.4 446.25L282.4 422.29L282.41 421.36L282.43 420.45L282.47 419.54L282.53 418.65L282.6 417.78L282.69 416.91L282.79 416.06L282.91 415.22L283.04 414.39L283.19 413.58L283.35 412.78L283.53 411.99L283.73 411.21L283.94 410.45L284.17 409.7L284.41 408.96L284.67 408.24L284.95 407.52L285.24 406.82L285.54 406.14L285.86 405.46L286.2 404.8L286.55 404.15L286.92 403.51L287.31 402.89L287.71 402.28L288.12 401.68L288.56 401.09L289 400.52L289.47 399.95L289.95 399.4L290.44 398.87L290.95 398.35L291.48 397.83L292.02 397.34L292.57 396.85L293.15 396.38L293.74 395.92L294.34 395.47L294.96 395.03L294.56 395L294.17 394.96L293.77 394.92L293.38 394.87L292.99 394.83L292.6 394.79L292.21 394.75L291.83 394.7L291.44 394.66L291.06 394.61L290.68 394.57L290.3 394.52L289.92 394.47L289.55 394.42L289.17 394.37L288.8 394.32L288.43 394.27L288.06 394.22L287.69 394.17L287.32 394.12L286.96 394.06L286.59 394.01L286.23 393.95L285.87 393.89L285.52 393.84L285.16 393.78L284.8 393.72L284.45 393.66L284.1 393.6L283.75 393.54L283.4 393.48L283.05 393.42L282.71 393.35L282.36 393.29L282.02 393.22L281.68 393.16L281.34 393.09L281.01 393.03L280.67 392.96L280.34 392.89L280 392.82L279.67 392.75L279.33 392.68L279 392.6L278.66 392.53L278.32 392.45L277.98 392.37L277.64 392.29L277.3 392.21L276.96 392.12L276.61 392.04L276.27 391.95L275.93 391.86L275.58 391.77L275.23 391.68L274.88 391.59L274.54 391.5L274.19 391.4L273.84 391.3L273.48 391.2L273.13 391.1L272.78 391L272.42 390.9L272.07 390.79L271.71 390.69L271.35 390.58L271 390.47L270.64 390.36L270.28 390.25L269.91 390.13L269.55 390.02L269.19 389.9L268.83 389.78L268.46 389.66L268.09 389.54L267.73 389.41L267.36 389.29L266.99 389.16L266.62 389.04L266.25 388.91L265.88 388.77L265.51 388.64L265.14 388.51L264.78 388.38L264.42 388.24L264.06 388.1L263.7 387.96L263.34 387.83L262.99 387.68L262.63 387.54L262.28 387.4L261.93 387.26L261.58 387.11L261.24 386.96L260.9 386.81L260.55 386.67L260.21 386.51L259.88 386.36L259.54 386.21L259.21 386.06L258.87 385.9L258.54 385.74L258.22 385.59L257.89 385.43L257.56 385.27L257.24 385.1L256.92 384.94L256.6 384.78L256.29 384.61L255.97 384.44L255.66 384.27L255.35 384.11L255.04 383.93L254.73 383.76L254.43 383.59L254.12 383.41L253.82 383.24L253.52 383.06L253.22 382.88L252.93 382.7L252.63 382.52L252.34 382.34L252.05 382.15L251.75 381.96L251.46 381.77L251.17 381.58L250.88 381.38L250.59 381.18L250.3 380.98L250.01 380.77L249.72 380.56L249.43 380.35L249.14 380.14L248.86 379.92L248.57 379.7L248.29 379.48L248 379.26L247.71 379.03L247.43 378.8L247.15 378.57L246.86 378.33L246.58 378.1L246.3 377.86L246.02 377.61L245.74 377.37L245.46 377.12L245.18 376.87L244.9 376.62L244.62 376.36L244.34 376.1L244.07 375.84L243.79 375.57L243.51 375.31L243.24 375.04L242.96 374.76L242.69 374.49L242.41 374.21L242.14 373.93L241.87 373.65L241.6 373.36L241.33 373.08L241.06 372.79L240.79 372.49L240.53 372.2L240.27 371.9L240.01 371.61L239.75 371.31L239.49 371.01L239.24 370.7L238.99 370.4L238.74 370.09L238.49 369.78L238.25 369.47L238.01 369.16L237.77 368.84L237.53 368.53L237.29 368.21L237.06 367.89L236.83 367.56L236.6 367.24L236.37 366.91L236.15 366.58L235.93 366.25L235.71 365.92L235.49 365.59L235.27 365.25L235.06 364.91L234.85 364.57L234.64 364.23L234.43 363.89L234.23 363.54L234.03 363.2L233.83 362.85L233.63 362.5L233.43 362.14L233.24 361.79L233.05 361.43L232.86 361.07L232.67 360.71L232.49 360.35L232.3 359.98L232.12 359.61L231.94 359.24L231.77 358.87L231.59 358.49L231.42 358.1L231.25 357.71L231.08 357.32L230.91 356.93L230.75 356.53L230.58 356.13L230.42 355.72L230.26 355.31L230.1 354.9L229.95 354.48L229.79 354.06L229.64 353.64L229.49 353.21L229.34 352.78L229.2 352.35L229.05 351.91L228.91 351.47L228.77 351.02L228.63 350.57L228.49 350.12L228.36 349.66L228.22 349.2L228.09 348.74L227.96 348.27L227.84 347.8L227.71 347.33L227.59 346.85L227.47 346.37L227.35 345.88L227.23 345.39L227.11 344.9L227 344.4L226.89 343.9L226.78 343.4L226.67 342.89L226.56 342.38L226.46 341.87L226.36 341.35L226.26 340.84L226.17 340.32L226.07 339.79L225.98 339.27L225.9 338.74L225.81 338.21L225.73 337.67L225.65 337.14L225.57 336.6L225.5 336.06L225.43 335.51L225.36 334.97L225.3 334.42L225.23 333.86L225.17 333.31L225.12 332.75L225.06 332.19L225.01 331.63L224.96 331.07L224.91 330.5L224.87 329.93L224.83 329.36L224.79 328.78L224.75 328.2L224.72 327.62L224.69 327.04L224.66 326.46L224.63 325.87L224.61 325.28L224.59 324.68L224.57 324.09L224.56 323.49L224.55 322.89L224.54 322.29L224.53 321.68L224.53 321.07L224.52 320.46L224.53 319.28L224.56 318.1L224.61 316.94L224.68 315.78L224.77 314.64L224.87 313.5L225 312.37L225.14 311.25L225.31 310.14L225.49 309.03L225.69 307.94L225.92 306.85L226.16 305.78L226.42 304.71L226.7 303.65L227 302.6L227.32 301.56L227.66 300.53L228.01 299.5L228.39 298.49L228.79 297.48L229.2 296.48L229.64 295.49L230.09 294.51L230.57 293.54L231.06 292.58L231.57 291.63L232.1 290.68L232.65 289.75L233.22 288.82L233.81 287.9L234.42 286.99L235.05 286.09L235.7 285.2L236.37 284.32L237.05 283.44L237.76 282.58L238.48 281.72L239.23 280.87L239.99 280.04L239.65 279.12L239.32 278.2L239.02 277.28L238.74 276.36L238.47 275.43L238.23 274.49L238 273.55L237.8 272.61L237.61 271.66L237.44 270.71L237.3 269.75L237.17 268.79L237.06 267.82L236.97 266.85L236.9 265.88L236.85 264.9L236.82 263.91L236.81 262.92L236.82 261.93L236.85 260.93L236.9 259.93L236.96 258.93L237.05 257.92L237.16 256.9L237.28 255.88L237.43 254.86L237.6 253.83L237.78 252.8L237.98 251.76L238.21 250.72L238.45 249.68L238.71 248.63L239 247.57L239.3 246.51L239.62 245.45L239.96 244.38L240.32 243.31L240.7 242.24L241.1 241.16L241.52 240.07L241.54 240.06L241.57 240.06L241.59 240.05L241.62 240.04L241.64 240.03L241.67 240.02L241.7 240.02L241.73 240.01L241.76 240L241.79 239.99L241.82 239.99L241.85 239.98L241.88 239.97L241.92 239.96L241.95 239.95L241.98 239.95L242.02 239.94L242.06 239.93L242.09 239.92L242.13 239.92L242.17 239.91L242.21 239.9L242.25 239.89L242.29 239.88L242.33 239.88L242.37 239.87L242.42 239.86L242.46 239.85L242.51 239.85L242.55 239.84L242.6 239.83L242.65 239.82L242.69 239.82L242.74 239.81L242.79 239.8L242.84 239.79L242.89 239.79L242.94 239.78L243 239.77L243.05 239.76L243.1 239.76L243.16 239.75L243.23 239.74L243.29 239.74L243.36 239.73L243.43 239.73L243.51 239.72L243.58 239.72L243.67 239.72L243.75 239.72L243.84 239.71L243.93 239.71L244.03 239.71L244.13 239.71L244.23 239.71L244.33 239.72L244.44 239.72L244.56 239.72L244.67 239.72L244.79 239.73L244.91 239.73L245.04 239.73L245.17 239.74L245.3 239.75L245.43 239.75L245.57 239.76L245.72 239.77L245.86 239.77L246.01 239.78L246.16 239.79L246.32 239.8L246.48 239.81L246.64 239.82L246.81 239.84L246.98 239.85L247.15 239.86L247.32 239.87L247.5 239.89L247.69 239.9L247.87 239.92L248.06 239.93L248.25 239.95L248.44 239.97L248.63 239.99L248.82 240.01L249.01 240.03L249.2 240.05L249.4 240.08L249.59 240.11L249.79 240.13L249.98 240.16L250.18 240.19L250.38 240.22L250.57 240.25L250.77 240.29L250.97 240.32L251.17 240.36L251.37 240.4L251.57 240.43L251.78 240.47L251.98 240.51L252.18 240.56L252.39 240.6L252.59 240.64L252.8 240.69L253.01 240.74L253.22 240.79L253.42 240.83L253.63 240.89L253.84 240.94L254.05 240.99L254.27 241.05L254.48 241.1L254.69 241.16L254.91 241.22L255.12 241.28L255.34 241.34L255.55 241.4L255.77 241.46L255.99 241.53L256.21 241.59L256.43 241.66L256.66 241.74L256.89 241.81L257.12 241.89L257.36 241.97L257.6 242.05L257.85 242.14L258.1 242.23L258.35 242.32L258.61 242.42L258.87 242.52L259.13 242.62L259.4 242.72L259.67 242.83L259.95 242.94L260.22 243.05L260.51 243.16L260.79 243.28L261.08 243.4L261.37 243.53L261.67 243.65L261.97 243.78L262.27 243.92L262.58 244.05L262.89 244.19L263.21 244.33L263.52 244.48L263.85 244.62L264.17 244.77L264.5 244.93L264.83 245.08L265.17 245.24L265.51 245.4L265.85 245.56L266.2 245.73L266.55 245.9L266.91 246.07L267.26 246.25L267.63 246.43L267.99 246.61L268.35 246.79L268.72 246.98L269.09 247.17L269.46 247.36L269.83 247.55L270.2 247.75L270.57 247.94L270.94 248.15L271.31 248.35L271.69 248.55L272.07 248.76L272.44 248.97L272.82 249.18L273.2 249.4L273.58 249.61L273.96 249.83L274.34 250.05L274.73 250.28L275.11 250.51L275.5 250.73L275.88 250.97L276.27 251.2L276.66 251.44L277.05 251.67L277.44 251.91L277.83 252.16L278.22 252.4L278.62 252.65L279.01 252.9L279.41 253.15L279.8 253.41L280.2 253.67L280.6 253.93L281 254.19L281.4 254.46L281.8 254.72L282.21 254.99L282.61 255.26L283.01 255.54L283.91 255.29L284.81 255.05L285.71 254.81L286.62 254.58L287.52 254.35L288.43 254.14L289.34 253.93L290.26 253.72L291.17 253.52L292.09 253.33L293.01 253.14L293.93 252.96L294.86 252.79L295.78 252.62L296.71 252.46L297.64 252.3L298.58 252.16L299.51 252.01L300.45 251.88L301.39 251.75L302.33 251.63L303.28 251.51L304.23 251.4L305.18 251.29L306.13 251.2L307.08 251.11L308.04 251.02L309 250.94L309.96 250.87L310.92 250.8L311.89 250.74L312.86 250.69L313.83 250.64L314.8 250.6L315.78 250.57L316.75 250.54L317.73 250.51L318.71 250.5L319.7 250.49L320.68 250.49L321.66 250.49L322.64 250.5L323.62 250.51L324.59 250.54L325.56 250.57L326.53 250.6L327.5 250.64L328.47 250.69L329.44 250.74L330.4 250.8L331.36 250.87L332.32 250.94L333.28 251.02L334.24 251.11L335.19 251.2L336.15 251.29L337.1 251.4L338.05 251.51L338.99 251.63L339.94 251.75L340.89 251.88L341.83 252.01L342.77 252.16L343.71 252.3L344.65 252.46L345.58 252.62L346.52 252.79L347.45 252.96L348.38 253.14L349.31 253.33L350.24 253.52L351.16 253.72L352.09 253.93L353.01 254.14L353.93 254.35L354.85 254.58L355.77 254.81L356.68 255.05L357.6 255.29L358.51 255.54L359.15 255.11L359.79 254.68L360.42 254.26L361.06 253.84L361.68 253.43L362.31 253.03L362.93 252.63L363.55 252.24L364.17 251.86L364.78 251.48L365.39 251.11L366 250.74L366.6 250.38L367.2 250.03L367.8 249.68L368.39 249.34L368.98 249L369.57 248.68L370.16 248.35L370.74 248.04L371.32 247.72L371.89 247.42L372.46 247.12L373.03 246.83L373.6 246.54L374.16 246.26L374.72 245.99L375.28 245.72L375.83 245.46L376.38 245.2L376.93 244.95L377.47 244.71L378.01 244.47L378.55 244.24L379.08 244.02L379.61 243.8L380.14 243.58L380.67 243.38L381.19 243.18L381.71 242.98L382.22 242.79L382.72 242.61L383.22 242.43L383.71 242.26L384.19 242.09L384.66 241.93L385.13 241.77L385.59 241.62L386.03 241.48L386.48 241.34L386.91 241.2L387.33 241.07L387.75 240.95L388.16 240.83L388.56 240.71L388.96 240.6L389.34 240.5L389.72 240.4L390.09 240.31L390.45 240.22L390.81 240.14L391.15 240.07L391.49 240L391.82 239.93L392.14 239.87L392.46 239.82L392.76 239.77L393.06 239.72L393.35 239.68L393.64 239.65L393.91 239.62L394.18 239.6L394.43 239.58L394.69 239.57L394.93 239.56L395.16 239.56L395.39 239.57L395.61 239.58L395.82 239.59L396.02 239.61L399.85 240.07L400.27 241.15L400.67 242.22L401.05 243.29L401.41 244.36L401.75 245.42L402.07 246.48L402.37 247.53L402.66 248.58L402.92 249.62L403.16 250.66L403.39 251.7L403.59 252.74L403.78 253.76L403.94 254.79L404.09 255.81L404.21 256.83L404.32 257.84L404.41 258.85L404.47 259.86L404.52 260.86L404.55 261.85L404.56 262.85L404.55 263.84L404.52 264.82L404.47 265.8L404.4 266.78L404.31 267.75L404.2 268.72L404.07 269.69L403.93 270.65L403.76 271.6L403.57 272.56L403.37 273.51L403.14 274.45L402.9 275.39L402.63 276.33L402.35 277.26L402.05 278.19L401.72 279.11L401.38 280.04L402.15 280.87L402.89 281.72L403.62 282.58L404.32 283.44L405.01 284.32L405.67 285.2L406.32 286.09L406.95 286.99L407.56 287.9L408.15 288.82L408.72 289.75L409.27 290.68L409.8 291.63L410.31 292.58L410.81 293.54L411.28 294.52L411.73 295.5L412.17 296.48L412.59 297.48L412.98 298.49L413.36 299.5L413.72 300.53L414.05 301.56L414.37 302.6L414.67 303.65L414.95 304.71L415.21 305.78L415.46 306.85L415.68 307.94L415.88 309.03L416.07 310.14L416.23 311.25L416.37 312.37L416.5 313.5L416.61 314.64L416.69 315.78L416.76 316.94L416.81 318.1L416.84 319.28L416.85 320.46L416.85 321.07L416.84 321.68L416.84 322.29L416.83 322.89L416.81 323.49L416.8 324.09L416.78 324.68L416.76 325.28L416.74 325.87L416.71 326.46L416.69 327.04L416.65 327.62L416.62 328.2L416.58 328.78L416.55 329.36L416.5 329.93L416.46 330.5L416.41 331.07L416.36 331.63L416.31 332.19L416.26 332.75L416.2 333.31L416.14 333.86L416.08 334.42L416.01 334.97L415.94 335.51L415.87 336.06L415.8 336.6L415.72 337.14L415.64 337.67L415.56 338.21L415.48 338.74L415.39 339.27L415.3 339.79L415.21 340.32L415.11 340.84L415.01 341.35L414.91 341.87L414.81 342.38L414.7 342.89L414.6 343.4L414.49 343.9L414.37 344.4L414.26 344.9L414.14 345.39L414.03 345.88L413.91 346.37L413.79 346.85L413.66 347.33L413.54 347.8L413.41 348.27L413.28 348.74L413.15 349.2L413.02 349.66L412.88 350.12L412.74 350.57L412.61 351.02L412.47 351.47L412.32 351.91L412.18 352.35L412.03 352.78L411.88 353.21L411.73 353.64L411.58 354.06L411.43 354.48L411.27 354.9L411.11 355.31L410.95 355.72L410.79 356.13L410.63 356.53L410.46 356.93L410.29 357.32L410.13 357.71L409.95 358.1L409.78 358.49L409.61 358.87L409.43 359.24L409.25 359.61L409.07 359.98L408.89 360.35L408.7 360.71L408.51 361.07L408.33 361.43L408.13 361.79L407.94 362.14L407.74 362.5L407.55 362.85L407.35 363.2L407.14 363.54L406.94 363.89L406.73 364.23L406.52 364.57L406.31 364.91L406.1 365.25L405.88 365.59L405.67 365.92L405.45 366.25L405.22 366.58L405 366.91L404.77 367.24L404.54 367.56L404.31 367.89L404.08 368.21L403.84 368.53L403.6 368.84L403.37 369.16L403.12 369.47L402.88 369.78L402.63 370.09L402.38 370.4L402.13 370.7L401.88 371.01L401.62 371.31L401.37 371.61L401.11 371.9L400.85 372.2L400.58 372.49L400.31 372.79L400.05 373.08L399.78 373.36L399.5 373.65L399.23 373.93L398.96 374.21L398.68 374.49L398.41 374.76L398.14 375.04L397.86 375.31L397.58 375.57L397.31 375.84L397.03 376.1L396.75 376.36L396.47 376.62L396.19 376.87L395.92 377.12L395.63 377.37L395.35 377.61L395.07 377.86L394.79 378.1L394.51 378.33L394.23 378.57L393.94 378.8L393.66 379.03L393.37 379.26L393.09 379.48L392.8 379.7L392.52 379.92L392.23 380.14L391.94 380.35L391.65 380.56L391.36 380.77L391.07 380.98L390.78 381.18L390.49 381.38L390.2 381.58L389.91 381.77L389.62 381.96L389.33 382.15L389.03 382.34L388.74 382.52L388.44 382.7L388.15 382.88L387.85 383.06L387.55 383.24L387.25 383.41L386.95 383.59L386.64 383.76L386.33 383.93L386.03 384.1L385.71 384.27L385.4 384.44L385.09 384.61L384.77 384.77L384.45 384.94L384.13 385.1L383.81 385.26L383.48 385.42L383.16 385.58L382.83 385.74L382.5 385.9L382.17 386.05L381.83 386.21L381.5 386.36L381.16 386.51L380.82 386.66L380.48 386.81L380.13 386.96L379.79 387.11L379.44 387.25L379.09 387.4L378.74 387.54L378.39 387.68L378.03 387.82L377.68 387.96L377.32 388.1L376.96 388.24L376.59 388.37L376.23 388.51L375.86 388.64L375.49 388.77L375.12 388.91L374.75 389.04L374.38 389.16L374.01 389.29L373.65 389.41L373.28 389.54L372.91 389.66L372.55 389.78L372.18 389.9L371.82 390.02L371.46 390.13L371.1 390.25L370.74 390.36L370.38 390.47L370.02 390.58L369.66 390.69L369.31 390.79L368.95 390.9L368.6 391L368.24 391.1L367.89 391.2L367.54 391.3L367.19 391.4L366.84 391.5L366.49 391.59L366.14 391.68L365.79 391.77L365.45 391.86L365.1 391.95L364.76 392.04L364.42 392.12L364.07 392.21L363.73 392.29L363.39 392.37L363.05 392.45L362.71 392.53L362.38 392.6L362.04 392.68L361.7 392.75L361.37 392.82L361.04 392.89L360.7 392.96L360.37 393.03L360.03 393.09L359.69 393.16L359.35 393.22L359.01 393.29L358.67 393.35L358.32 393.42L357.97 393.48L357.62 393.54L357.27 393.6L356.92 393.66L356.57 393.72L356.21 393.78L355.86 393.84L355.5 393.89L355.14 393.95L354.78 394.01L354.41 394.06L354.05 394.11L353.68 394.17L353.32 394.22L352.95 394.27L352.57 394.32L352.2 394.37L351.83 394.42L351.45 394.47L351.07 394.52L350.69 394.57L350.31 394.61L349.93 394.66L349.55 394.7L349.16 394.75L348.77 394.79L348.38 394.83L347.99 394.87L347.6 394.91L347.21 394.96L346.81 394.99L346.41 395.03L347.04 395.48L347.65 395.93L348.25 396.4L348.83 396.88L349.39 397.37L349.94 397.87L350.47 398.39L350.99 398.92L351.49 399.46L351.97 400.01L352.44 400.57L352.9 401.15L353.33 401.74L353.75 402.34L354.16 402.96L354.55 403.58L354.92 404.22L355.28 404.87L355.62 405.54L355.95 406.21L356.26 406.9L356.55 407.6L356.83 408.31L357.09 409.03L357.34 409.77L357.57 410.52L357.78 411.28L357.98 412.05L358.16 412.84L358.33 413.64L358.48 414.45L358.61 415.27L358.73 416.1L358.84 416.95L358.92 417.81L359 418.68L359.05 419.56L359.09 420.46L359.12 421.37L359.12 422.29L359.12 445.79L359.43 445.69L359.74 445.6L360.04 445.5L360.35 445.4L360.66 445.3L360.96 445.2L361.27 445.1L361.58 445L361.88 444.9L362.19 444.79L362.49 444.69L362.8 444.59L363.1 444.48L363.41 444.38L363.71 444.27L364.02 444.16L364.32 444.05L364.62 443.94L364.93 443.83L365.23 443.72L365.53 443.61L365.84 443.5L366.14 443.39L366.44 443.27L366.74 443.16L367.05 443.04L367.35 442.93L367.65 442.81L367.95 442.69L368.25 442.57L368.55 442.46L368.85 442.34L369.15 442.22L369.45 442.09L369.75 441.97L370.05 441.85L370.35 441.73L370.65 441.6L370.95 441.48L371.25 441.35L372.04 441.01L372.85 440.65L373.66 440.27L374.49 439.87L375.33 439.46L376.19 439.02L377.06 438.57L377.94 438.1L378.84 437.61L379.75 437.1L380.67 436.57L381.6 436.02L382.55 435.46L383.51 434.87L384.49 434.27L385.47 433.65L386.48 433.01L387.49 432.35L388.52 431.67L389.56 430.98L390.61 430.26L391.68 429.53L392.76 428.77L393.85 428L394.95 427.21L396.07 426.4L397.2 425.58L398.35 424.73L399.51 423.86L400.68 422.98L401.86 422.08L403.06 421.16L404.27 420.22L405.5 419.26L406.73 418.28L407.98 417.29L409.25 416.27L410.52 415.24L411.81 414.19L413.12 413.12L414.02 412.21L414.91 411.29L415.8 410.36L416.67 409.43L417.53 408.49L418.38 407.54L419.23 406.58L420.06 405.62L420.89 404.65L421.7 403.67L422.5 402.69L423.3 401.7L424.08 400.7L424.85 399.7L425.62 398.69L426.37 397.67L427.11 396.64L427.85 395.61L428.57 394.57L429.28 393.52L429.98 392.47L430.68 391.41L431.36 390.35L432.03 389.27L432.69 388.2L433.34 387.11L433.98 386.02L434.61 384.92L435.23 383.82L435.84 382.7L436.44 381.59L437.03 380.46L437.6 379.33L438.17 378.2L438.73 377.05L439.27 375.91L439.81 374.75L440.33 373.59L440.84 372.42L441.35 371.25L441.86 370.03L442.35 368.81L442.83 367.59L443.3 366.36L443.76 365.12L444.21 363.89L444.64 362.65L445.06 361.4L445.46 360.15L445.86 358.9L446.24 357.65L446.61 356.39L446.96 355.13L447.3 353.87L447.63 352.6L447.95 351.33L448.25 350.05L448.55 348.78L448.82 347.5L449.09 346.21L449.34 344.93L449.58 343.64L449.81 342.35L450.02 341.05L450.22 339.76L450.41 338.46L450.59 337.16L450.75 335.85L450.9 334.54L451.04 333.23L451.16 331.92L451.27 330.6L451.37 329.29L451.45 327.97L451.52 326.64L451.58 325.32L451.63 323.99L451.66 322.66L451.68 321.33L451.69 320L451.68 318.67L451.66 317.34L451.63 316.01L451.58 314.68L451.52 313.36L451.45 312.03L451.37 310.71L451.27 309.4L451.16 308.08L451.04 306.77L450.9 305.46L450.75 304.15L450.59 302.85L450.41 301.54L450.22 300.24L450.02 298.95L449.81 297.65L449.58 296.36L449.34 295.07L449.09 293.79L448.82 292.5L448.55 291.22L448.26 289.95L447.95 288.67L447.63 287.4L447.3 286.14L446.96 284.87L446.61 283.61L446.24 282.35L445.86 281.1L445.46 279.85L445.06 278.6L444.64 277.36L444.21 276.12L443.76 274.88L443.31 273.65L442.84 272.42L442.35 271.19L441.86 269.97L441.35 268.75L440.85 267.58L440.33 266.41L439.81 265.25L439.27 264.09L438.73 262.95L438.17 261.8L437.61 260.67L437.03 259.54L436.44 258.41L435.84 257.3L435.23 256.18L434.61 255.08L433.98 253.98L433.34 252.89L432.69 251.8L432.03 250.73L431.36 249.65L430.68 248.59L429.99 247.53L429.28 246.48L428.57 245.43L427.85 244.39L427.12 243.36L426.37 242.33L425.62 241.31L424.86 240.3L424.08 239.3L423.3 238.3L422.5 237.31L421.7 236.33L420.89 235.35L420.06 234.38L419.23 233.42L418.39 232.46L417.53 231.51L416.67 230.57L415.8 229.64L414.91 228.71L414.02 227.79L413.12 226.88L412.21 225.98L411.29 225.09L410.36 224.2L409.43 223.33L408.49 222.47L407.54 221.61L406.58 220.77L405.62 219.94L404.65 219.11L403.67 218.3L402.69 217.5L401.7 216.7L400.7 215.92L399.7 215.14L398.69 214.38L397.67 213.63L396.64 212.88L395.61 212.15L394.57 211.43L393.53 210.72L392.47 210.01L391.41 209.32L390.35 208.64L389.28 207.97L388.2 207.31L387.11 206.66L386.02 206.02L384.92 205.39L383.82 204.77L382.71 204.16L381.59 203.56L380.46 202.97L379.33 202.39L378.2 201.83L377.06 201.27L375.91 200.73L374.75 200.19L373.59 199.67L372.42 199.15L371.25 198.65L370.03 198.14L368.81 197.65L367.59 197.16L366.36 196.69L365.12 196.24L363.89 195.79L362.65 195.36L361.4 194.94L360.15 194.53L358.9 194.14L357.65 193.76L356.39 193.39L355.13 193.04L353.87 192.69L352.6 192.36L351.33 192.05L350.06 191.74L348.78 191.45L347.5 191.17L346.22 190.91L344.93 190.65L343.64 190.41L342.35 190.19L341.06 189.97L339.76 189.77L338.46 189.58L337.16 189.41L335.85 189.25L334.54 189.1L333.23 188.96L331.92 188.84L330.61 188.73L329.29 188.63L327.97 188.54L326.65 188.47L325.32 188.41L323.99 188.37L322.66 188.34L321.33 188.32L320 188.31L318.67 188.32L317.34 188.34Z" id="a2xuaPYNDK"></path></defs><g><g><g><use xlink:href="#ctFw00V0g" opacity="1" fill="#06f6e0" fill-opacity="1"></use><g><use xlink:href="#ctFw00V0g" opacity="1" fill-opacity="0" stroke="#000000" stroke-width="1" stroke-opacity="0"></use></g></g><g><use xlink:href="#a2xuaPYNDK" opacity="1" fill="#f7f7f7" fill-opacity="1"></use><g><use xlink:href="#a2xuaPYNDK" opacity="1" fill-opacity="0" stroke="#000000" stroke-width="1" stroke-opacity="0"></use></g></g></g></g></svg>