<?xml version="1.0" encoding="UTF-8" standalone="no"?>
<!DOCTYPE svg PUBLIC "-//W3C//DTD SVG 1.1//EN" "http://www.w3.org/Graphics/SVG/1.1/DTD/svg11.dtd">
<svg version="1.1" xmlns="http://www.w3.org/2000/svg" xmlns:xlink="http://www.w3.org/1999/xlink" preserveAspectRatio="xMidYMid meet" viewBox="0 0 640 640" width="640" height="640"><defs><path d="M320 12.8C150.34 12.8 12.8 150.34 12.8 320C12.8 489.66 150.34 627.2 320 627.2C489.66 627.2 627.2 489.66 627.2 320C627.2 150.34 489.66 12.8 320 12.8Z" id="b26l85k4yB"></path><path d="M428.43 163.38L430.55 163.59L432.64 163.89L434.71 164.28L436.74 164.74L438.75 165.28L440.73 165.9L442.67 166.59L444.58 167.36L446.45 168.19L448.28 169.1L450.07 170.08L451.82 171.12L453.52 172.23L455.18 173.4L456.79 174.63L458.36 175.92L459.87 177.27L461.33 178.67L462.73 180.13L464.08 181.64L465.37 183.21L466.6 184.82L467.77 186.48L468.88 188.18L469.92 189.93L470.9 191.72L471.81 193.55L472.64 195.42L473.41 197.33L474.1 199.27L474.72 201.25L475.26 203.26L475.72 205.29L476.11 207.36L476.41 209.45L476.62 211.57L476.76 213.71L476.8 215.88L476.8 424.12L476.76 426.29L476.62 428.43L476.41 430.55L476.11 432.64L475.72 434.71L475.26 436.74L474.72 438.75L474.1 440.73L473.41 442.67L472.64 444.58L471.81 446.45L470.9 448.28L469.92 450.07L468.88 451.82L467.77 453.52L466.6 455.18L465.37 456.79L464.08 458.36L462.73 459.87L461.33 461.33L459.87 462.73L458.36 464.08L456.79 465.37L455.18 466.6L453.52 467.77L451.82 468.88L450.07 469.92L448.28 470.9L446.45 471.81L444.58 472.64L442.67 473.41L440.73 474.1L438.75 474.72L436.74 475.26L434.71 475.72L432.64 476.11L430.55 476.41L428.43 476.62L426.29 476.76L424.12 476.8L215.88 476.8L213.71 476.76L211.57 476.62L209.45 476.41L207.36 476.11L205.29 475.72L203.26 475.26L201.25 474.72L199.27 474.1L197.33 473.41L195.42 472.64L193.55 471.81L191.72 470.9L189.93 469.92L188.18 468.88L186.48 467.77L184.82 466.6L183.21 465.37L181.64 464.08L180.13 462.73L178.67 461.33L177.27 459.87L175.92 458.36L174.63 456.79L173.4 455.18L172.23 453.52L171.12 451.82L170.08 450.07L169.1 448.28L168.19 446.45L167.36 444.58L166.59 442.67L165.9 440.73L165.28 438.75L164.74 436.74L164.28 434.71L163.89 432.64L163.59 430.55L163.38 428.43L163.24 426.29L163.2 424.12L163.2 215.88L163.24 213.71L163.38 211.57L163.59 209.45L163.89 207.36L164.28 205.29L164.74 203.26L165.28 201.25L165.9 199.27L166.59 197.33L167.36 195.42L168.19 193.55L169.1 191.72L170.08 189.93L171.12 188.18L172.23 186.48L173.4 184.82L174.63 183.21L175.92 181.64L177.27 180.13L178.67 178.67L180.13 177.27L181.64 175.92L183.21 174.63L184.82 173.4L186.48 172.23L188.18 171.12L189.93 170.08L191.72 169.1L193.55 168.19L195.42 167.36L197.33 166.59L199.27 165.9L201.25 165.28L203.26 164.74L205.29 164.28L207.36 163.89L209.45 163.59L211.57 163.38L213.71 163.24L215.88 163.2L424.12 163.2L426.29 163.24L428.43 163.38ZM300.4 418L339.6 418L339.6 339.6L339.62 338.79L339.66 337.99L339.75 337.2L339.86 336.42L340 335.65L340.17 334.89L340.37 334.14L340.6 333.4L340.86 332.68L341.14 331.97L341.45 331.27L341.79 330.59L342.15 329.93L342.54 329.28L342.95 328.64L343.38 328.02L343.84 327.42L344.32 326.84L344.82 326.28L345.34 325.74L345.88 325.22L346.44 324.72L347.02 324.24L347.62 323.78L348.24 323.35L348.88 322.94L349.53 322.55L350.19 322.19L350.87 321.85L351.57 321.54L352.28 321.26L353 321L353.74 320.77L354.49 320.57L355.25 320.4L356.02 320.26L356.8 320.15L357.59 320.06L358.39 320.02L359.2 320L360.01 320.02L360.81 320.06L361.6 320.15L362.38 320.26L363.15 320.4L363.91 320.57L364.66 320.77L365.4 321L366.12 321.26L366.83 321.54L367.53 321.85L368.21 322.19L368.87 322.55L369.52 322.94L370.16 323.35L370.78 323.78L371.38 324.24L371.96 324.72L372.52 325.22L373.06 325.74L373.58 326.28L374.08 326.84L374.56 327.42L375.02 328.02L375.45 328.64L375.86 329.28L376.25 329.93L376.61 330.59L376.95 331.27L377.26 331.97L377.54 332.68L377.8 333.4L378.03 334.14L378.23 334.89L378.4 335.65L378.54 336.42L378.65 337.2L378.74 337.99L378.78 338.79L378.8 339.6L378.8 418L418 418L418 329.8L417.97 327.78L417.86 325.78L417.68 323.8L417.43 321.85L417.11 319.92L416.72 318.02L416.27 316.15L415.75 314.31L415.18 312.5L414.54 310.73L413.84 308.99L413.08 307.28L412.27 305.62L411.4 303.99L410.47 302.4L409.49 300.86L408.47 299.36L407.39 297.91L406.26 296.51L405.09 295.15L403.87 293.85L402.6 292.6L401.3 291.4L399.95 290.25L398.56 289.17L397.13 288.14L395.67 287.17L394.17 286.27L392.63 285.43L391.07 284.65L389.47 283.94L387.84 283.3L386.18 282.73L384.5 282.22L382.79 281.8L381.05 281.44L379.3 281.16L377.52 280.96L375.72 280.84L373.9 280.8L372.86 280.82L371.83 280.9L370.81 281.02L369.79 281.18L368.78 281.39L367.78 281.64L366.78 281.93L365.79 282.27L364.81 282.64L363.83 283.04L362.87 283.48L361.91 283.96L360.96 284.47L360.02 285.01L359.09 285.57L358.17 286.17L357.26 286.79L356.36 287.44L355.47 288.11L354.59 288.81L353.72 289.52L352.86 290.25L352.01 291.01L351.18 291.77L350.35 292.56L349.54 293.36L348.74 294.16L347.95 294.99L347.18 295.81L346.42 296.65L345.67 297.5L344.94 298.34L344.22 299.2L343.52 300.05L342.83 300.91L342.15 301.76L341.49 302.61L340.84 303.46L340.21 304.3L339.6 305.14L339.6 280.8L300.4 280.8L300.4 418ZM241.6 418L280.8 418L280.8 280.8L241.6 280.8L241.6 418ZM258.54 222.18L257.25 222.4L255.99 222.7L254.76 223.08L253.57 223.54L252.42 224.07L251.31 224.68L250.24 225.35L249.22 226.08L248.25 226.88L247.34 227.74L246.48 228.65L245.68 229.62L244.95 230.64L244.28 231.71L243.67 232.82L243.14 233.97L242.68 235.16L242.3 236.39L242 237.65L241.78 238.94L241.65 240.26L241.6 241.6L241.65 242.94L241.78 244.26L242 245.55L242.3 246.81L242.68 248.04L243.14 249.23L243.67 250.38L244.28 251.49L244.95 252.56L245.68 253.58L246.48 254.55L247.34 255.46L248.25 256.32L249.22 257.12L250.24 257.85L251.31 258.52L252.42 259.13L253.57 259.66L254.76 260.12L255.99 260.5L257.25 260.8L258.54 261.02L259.86 261.15L261.2 261.2L262.54 261.15L263.86 261.02L265.15 260.8L266.41 260.5L267.64 260.12L268.83 259.66L269.98 259.13L271.09 258.52L272.16 257.85L273.18 257.12L274.15 256.32L275.06 255.46L275.92 254.55L276.72 253.58L277.45 252.56L278.12 251.49L278.73 250.38L279.26 249.23L279.72 248.04L280.1 246.81L280.4 245.55L280.62 244.26L280.75 242.94L280.8 241.6L280.75 240.26L280.62 238.94L280.4 237.65L280.1 236.39L279.72 235.16L279.26 233.97L278.73 232.82L278.12 231.71L277.45 230.64L276.72 229.62L275.92 228.65L275.06 227.74L274.15 226.88L273.18 226.08L272.16 225.35L271.09 224.68L269.98 224.07L268.83 223.54L267.64 223.08L266.41 222.7L265.15 222.4L263.86 222.18L262.54 222.05L261.2 222L259.86 222.05L258.54 222.18Z" id="fqoWn3492"></path></defs><g><g><g><use xlink:href="#b26l85k4yB" opacity="1" fill="#06f6e0" fill-opacity="1"></use><g><use xlink:href="#b26l85k4yB" opacity="1" fill-opacity="0" stroke="#000000" stroke-width="1" stroke-opacity="0"></use></g></g><g><use xlink:href="#fqoWn3492" opacity="1" fill="#f7f7f7" fill-opacity="1"></use><g><use xlink:href="#fqoWn3492" opacity="1" fill-opacity="0" stroke="#000000" stroke-width="1" stroke-opacity="0"></use></g></g></g></g></svg>