<?xml version="1.0" encoding="UTF-8" standalone="no"?>
<!DOCTYPE svg PUBLIC "-//W3C//DTD SVG 1.1//EN" "http://www.w3.org/Graphics/SVG/1.1/DTD/svg11.dtd">
<svg version="1.1" xmlns="http://www.w3.org/2000/svg" xmlns:xlink="http://www.w3.org/1999/xlink" preserveAspectRatio="xMidYMid meet" viewBox="0 0 640 640" width="640" height="640"><defs><path d="M320 12.8C150.34 12.8 12.8 150.34 12.8 320C12.8 489.66 150.34 627.2 320 627.2C489.66 627.2 627.2 489.66 627.2 320C627.2 150.34 489.66 12.8 320 12.8Z" id="c15TJsnzxC"></path><path d="M439.85 232.36C453.13 224.35 463.33 211.67 468.14 196.55C455.71 203.97 441.95 209.35 427.29 212.26C415.55 199.68 398.83 191.82 380.32 191.82C344.79 191.82 315.98 220.79 315.98 256.53C315.98 261.61 316.55 266.54 317.64 271.28C264.17 268.58 216.76 242.82 185.03 203.66C179.49 213.23 176.32 224.34 176.32 236.2C176.32 258.66 187.68 278.47 204.94 290.07C194.4 289.74 184.47 286.83 175.8 281.98C175.8 282.25 175.8 282.52 175.8 282.79C175.8 314.15 197.98 340.3 227.41 346.25C222.01 347.73 216.33 348.52 210.46 348.52C206.31 348.52 202.28 348.12 198.36 347.36C206.54 373.07 230.3 391.79 258.46 392.31C236.44 409.66 208.69 420.01 178.55 420.01C173.36 420.01 168.24 419.7 163.2 419.11C191.68 437.47 225.5 448.19 261.83 448.19C380.17 448.19 444.89 349.57 444.89 264.05C444.89 261.24 444.82 258.45 444.7 255.67C457.27 246.54 468.18 235.14 476.8 222.17C465.26 227.32 452.87 230.79 439.85 232.36Z" id="brTFC7yib"></path></defs><g><g><g><use xlink:href="#c15TJsnzxC" opacity="1" fill="#06f6e0" fill-opacity="1"></use><g><use xlink:href="#c15TJsnzxC" opacity="1" fill-opacity="0" stroke="#000000" stroke-width="1" stroke-opacity="0"></use></g></g><g><use xlink:href="#brTFC7yib" opacity="1" fill="#030303" fill-opacity="1"></use><g><use xlink:href="#brTFC7yib" opacity="1" fill-opacity="0" stroke="#000000" stroke-width="1" stroke-opacity="0"></use></g></g></g></g></svg>